# xmcd CD database file
# Copyright (C) 1995-1998 Ti Kan
#
# Track frame offsets:
#	150
#	10905
#	22895
#	34465
#	47065
#	57142
#	69605
#	80607
#	92970
#	105432
#	117797
#	128622
#	139277
#	151357
#	161687
#	173745
#
# Disc length: 2452 seconds
#
# Revision: 1
# Processed by: cddbd v1.4PL0 Copyright (c) Steve Scherf et al.
# Submitted via: CDex 1.30Release
#
DISCID=ce099210
DTITLE=Lightnin' Hopkins - Lightnin' And The Blues
DYEAR=2001
DGENRE=Blues
TTITLE0=Nothin' But The Blues
TTITLE1=Don't Think Cause You're Pretty
TTITLE2=Lightnin's Boogie
TTITLE3=Life I Used To Live
TTITLE4=Sick Feelin' Blues
TTITLE5=Evil Hearted Woman
TTITLE6=Blues For My Cookie
TTITLE7=Sittin' Down Thinkin'
TTITLE8=My Baby's Gone
TTITLE9=Lonesome In Your Home
TTITLE10=Lightnin's Special
TTITLE11=My Little Kewpie Doll
TTITLE12=Shine On Moon
TTITLE13=Had A Gal Called Sal
TTITLE14=Remember Me
TTITLE15=Moving On Out Boogie
EXTD=YEAR: 2001 ID3G:   0
EXTT0=
EXTT1=
EXTT2=
EXTT3=
EXTT4=
EXTT5=
EXTT6=
EXTT7=
EXTT8=
EXTT9=
EXTT10=
EXTT11=
EXTT12=
EXTT13=
EXTT14=
EXTT15=
PLAYORDER=
